<?xml version="1.0" encoding="utf-8"?>
<!-- Generator: Adobe Illustrator 16.0.0, SVG Export Plug-In . SVG Version: 6.00 Build 0)  -->
<!DOCTYPE svg PUBLIC "-//W3C//DTD SVG 1.1//EN" "http://www.w3.org/Graphics/SVG/1.1/DTD/svg11.dtd">
<svg version="1.1" id="Layer_1" xmlns="http://www.w3.org/2000/svg" xmlns:xlink="http://www.w3.org/1999/xlink" x="0px" y="0px"
	 width="53px" height="53px" viewBox="0 0 53 53" enable-background="new 0 0 53 53" xml:space="preserve">
<path fill="#E5E8ED" d="M42.515,26.5c0,8.847-7.171,16.015-16.015,16.015c-8.846,0-16.016-7.168-16.016-16.015
	c0-1.054,0.104-2.083,0.299-3.08H0.013v21.29c0,4.571,3.703,8.276,8.277,8.276H44.71c4.568,0,8.276-3.705,8.276-8.276V23.42H42.216
	C42.41,24.417,42.515,25.446,42.515,26.5z M44.71,0.013H8.291c-4.574,0-8.277,3.707-8.277,8.278v8.97h13.408
	c2.901-4.099,7.676-6.776,13.079-6.776c5.401,0,10.178,2.678,13.076,6.776h13.41v-8.97C52.986,3.72,49.278,0.013,44.71,0.013z
	 M48.756,10.238c0,0.814-0.664,1.478-1.478,1.478h-4.436c-0.813,0-1.479-0.664-1.479-1.478V5.804c0-0.814,0.666-1.479,1.479-1.479
	h4.436c0.813,0,1.478,0.665,1.478,1.479V10.238z M36.355,26.5c0-5.443-4.413-9.855-9.855-9.855c-5.444,0-9.855,4.412-9.855,9.855
	s4.412,9.855,9.855,9.855C31.942,36.355,36.355,31.943,36.355,26.5z"/>
</svg>
