<?xml version="1.0" encoding="utf-8"?>
<!-- Generator: Adobe Illustrator 16.0.0, SVG Export Plug-In . SVG Version: 6.00 Build 0)  -->
<!DOCTYPE svg PUBLIC "-//W3C//DTD SVG 1.1//EN" "http://www.w3.org/Graphics/SVG/1.1/DTD/svg11.dtd">
<svg version="1.1" id="Layer_1" xmlns="http://www.w3.org/2000/svg" xmlns:xlink="http://www.w3.org/1999/xlink" x="0px" y="0px"
	 width="53px" height="52.241px" viewBox="0 0 53 52.241" enable-background="new 0 0 53 52.241" xml:space="preserve">
<g>
	<path fill="#E5E8ED" d="M12.006,5.664c0,3.129-2.31,5.663-6.112,5.663c-3.576,0-5.885-2.534-5.885-5.663
		C0.009,2.46,2.394,0,6.044,0C9.696,0,11.932,2.46,12.006,5.664z M0.307,52.241V15.799h11.328v36.442H0.307z"/>
	<path fill="#E5E8ED" d="M18.413,27.424c0-4.545-0.148-8.346-0.297-11.625h9.833l0.525,5.066h0.222
		c1.492-2.385,5.144-5.887,11.256-5.887c7.448,0,13.039,4.993,13.039,15.725v21.538H41.662V32.043c0-4.694-1.638-7.898-5.738-7.898
		c-3.131,0-4.989,2.161-5.812,4.247c-0.297,0.746-0.373,1.79-0.373,2.833v21.017H18.413V27.424z"/>
</g>
</svg>
