<?xml version="1.0" encoding="utf-8"?>
<!-- Generator: Adobe Illustrator 16.0.0, SVG Export Plug-In . SVG Version: 6.00 Build 0)  -->
<!DOCTYPE svg PUBLIC "-//W3C//DTD SVG 1.1//EN" "http://www.w3.org/Graphics/SVG/1.1/DTD/svg11.dtd">
<svg version="1.1" id="Layer_1" xmlns="http://www.w3.org/2000/svg" xmlns:xlink="http://www.w3.org/1999/xlink" x="0px" y="0px"
	 width="120px" height="120px" viewBox="0 0 120 120" enable-background="new 0 0 120 120" xml:space="preserve">
<g>
	<circle fill="#FFFFFF" cx="59.999" cy="60" r="59.264"/>
	<path fill="none" d="M59.999,6.574c-29.458,0-53.424,23.968-53.424,53.427s23.966,53.425,53.424,53.425
		c29.459,0,53.428-23.966,53.428-53.425S89.458,6.574,59.999,6.574z M59.999,110.492c-27.839,0-50.491-22.651-50.491-50.491
		c0-27.841,22.651-50.492,50.491-50.492c27.842,0,50.494,22.651,50.494,50.492C110.492,87.841,87.841,110.492,59.999,110.492z"/>
	<path fill="#D99623" d="M80.781,56.685c0.367-0.628,0.752-1.31,1.152-2.042c0.398-0.733,0.762-1.453,1.082-2.161
		c0.319-0.708,0.586-1.37,0.793-1.986c0.209-0.616,0.315-1.121,0.315-1.516c0-0.134-0.011-0.285-0.028-0.452
		c-0.019-0.167-0.058-0.324-0.119-0.472c-0.063-0.147-0.156-0.271-0.287-0.37c-0.129-0.098-0.313-0.147-0.545-0.147
		c-0.319,0-0.646,0.284-0.971,0.851c-0.324,0.567-0.642,1.289-0.943,2.17c-0.299,0.88-0.582,1.851-0.849,2.909
		c-0.266,1.059-0.508,2.087-0.729,3.086c0.187,0.025,0.371,0.045,0.554,0.063C80.395,56.638,80.584,56.66,80.781,56.685z"/>
	<path fill="#D99623" d="M96.439,55.621c0.4-0.733,0.762-1.453,1.08-2.162c0.32-0.707,0.586-1.37,0.795-1.985
		c0.209-0.615,0.315-1.122,0.315-1.516c0-0.134-0.012-0.286-0.028-0.452c-0.019-0.165-0.059-0.323-0.121-0.47
		c-0.062-0.149-0.154-0.272-0.285-0.37c-0.131-0.099-0.311-0.148-0.545-0.148c-0.32,0-0.646,0.284-0.971,0.85
		c-0.326,0.567-0.64,1.289-0.941,2.171c-0.301,0.88-0.586,1.85-0.852,2.909c-0.265,1.06-0.216,1.109-0.438,2.108
		c0.185,0.025,0.369,0.045,0.555,0.063c0.186,0.019,0.417,0.188,0.573,0.065C96.161,56.229,96.041,56.354,96.439,55.621z"/>
	<path fill="#D99623" d="M63.979,63.725c-0.424,0.43-0.813,0.922-1.174,1.477c-0.355,0.555-0.664,1.136-0.924,1.748
		c-0.256,0.609-0.459,1.221-0.6,1.835c-0.143,0.618-0.213,1.198-0.213,1.737c0,0.308,0.021,0.608,0.064,0.896
		c0.042,0.291,0.12,0.549,0.23,0.776c0.111,0.229,0.261,0.412,0.443,0.554c0.185,0.142,0.418,0.211,0.702,0.211
		c0.455,0,0.867-0.194,1.236-0.589c0.37-0.393,0.69-0.867,0.961-1.424c0.271-0.555,0.489-1.125,0.655-1.717
		c0.168-0.592,0.273-1.084,0.324-1.479l1.127-5.431c-0.504,0-0.996,0.125-1.479,0.379C64.857,62.95,64.402,63.292,63.979,63.725z"/>
	<path fill="#D99623" d="M59.999,9.509C32.16,9.509,9.508,32.16,9.508,60.001c0,27.839,22.651,50.491,50.491,50.491
		c27.842,0,50.494-22.651,50.494-50.491C110.492,32.16,87.841,9.509,59.999,9.509z M101.672,74.18
		c-0.922,0.516-1.742,0.948-2.464,1.293c-0.722,0.346-1.362,0.604-1.922,0.775c-0.56,0.174-1.067,0.26-1.526,0.26
		c-0.935,0-1.76-0.283-2.473-0.852c-0.715-0.565-1.313-1.381-1.793-2.445c-0.296-0.661-0.541-1.416-0.747-2.25
		c-1.161,1.531-3.164,2.823-3.872,3.219c-0.922,0.516-1.744,0.948-2.464,1.293c-0.722,0.346-1.361,0.604-1.922,0.775
		c-0.56,0.174-1.07,0.26-1.525,0.26c-0.937,0-1.761-0.283-2.475-0.852c-0.716-0.565-1.313-1.381-1.791-2.445
		c-0.097-0.219-0.188-0.449-0.276-0.686c-0.209,0.261-0.439,0.537-0.713,0.842c-0.475,0.527-1.006,1.033-1.598,1.516
		c-0.592,0.479-1.228,0.885-1.903,1.219c-0.677,0.332-1.354,0.498-2.03,0.498c-0.814,0-1.49-0.261-2.033-0.785
		c-0.543-0.521-1.008-1.282-1.404-2.279c-0.295,0.344-0.658,0.695-1.088,1.052c-0.434,0.356-0.904,0.681-1.416,0.972
		c-0.51,0.287-1.043,0.523-1.596,0.711c-0.555,0.186-1.108,0.275-1.662,0.275c-0.594,0-1.168-0.12-1.729-0.359
		c-0.56-0.238-1.055-0.586-1.487-1.035c-0.328-0.342-0.59-0.762-0.82-1.219c-0.466,0.474-0.936,0.902-1.414,1.239
		c-0.677,0.474-1.365,0.813-2.06,1.022c-0.696,0.211-1.389,0.314-2.078,0.314c-0.666,0-1.315-0.117-1.948-0.352
		c-0.636-0.234-1.198-0.583-1.691-1.045c-0.494-0.461-0.887-1.033-1.183-1.717c-0.295-0.685-0.444-1.469-0.444-2.355
		c0-0.1,0.003-0.203,0.01-0.314c0.006-0.109,0.015-0.222,0.028-0.334c0.048-0.822,0.154-1.701,0.313-2.629
		c0.16-0.931,0.343-1.89,0.544-2.873c0.204-0.986,0.417-1.99,0.638-3.014c0.223-1.021,0.425-2.041,0.611-3.056
		c0.183-1.017,0.337-2.021,0.461-3.012c0.123-0.991,0.185-1.943,0.185-2.854c0-0.555-0.018-1.056-0.056-1.506
		c-0.037-0.45-0.111-0.831-0.222-1.146c-0.111-0.315-0.272-0.558-0.48-0.729c-0.209-0.172-0.487-0.259-0.832-0.259
		c-0.652,0-1.268,0.229-1.847,0.685c-0.578,0.456-1.127,1.083-1.644,1.884c-0.517,0.8-1,1.749-1.451,2.845
		c-0.449,1.096-0.874,2.281-1.275,3.556c-0.4,1.275-0.772,2.611-1.117,4.008c-0.345,1.398-0.666,2.807-0.961,4.223
		c-0.294,1.416-0.573,2.814-0.831,4.191c-0.259,1.381-0.499,2.686-0.721,3.92c-0.098,0.344-0.248,0.637-0.452,0.875
		c-0.203,0.242-0.437,0.436-0.702,0.581c-0.266,0.149-0.544,0.258-0.841,0.325c-0.295,0.066-0.591,0.102-0.885,0.102
		c-0.259,0-0.514-0.049-0.769-0.148c-0.251-0.1-0.474-0.254-0.664-0.471c-0.192-0.217-0.345-0.49-0.462-0.82
		c-0.117-0.334-0.176-0.739-0.176-1.223c0-0.318,0.076-0.869,0.223-1.652c0.147-0.781,0.335-1.717,0.563-2.807
		s0.474-2.285,0.739-3.585c0.265-1.299,0.511-2.625,0.738-3.974c0.229-1.348,0.417-2.68,0.564-3.999
		c0.148-1.316,0.221-2.53,0.221-3.638c0-0.764-0.017-1.448-0.056-2.052c-0.037-0.604-0.123-1.115-0.258-1.533
		c-0.135-0.419-0.33-0.738-0.582-0.961c-0.253-0.223-0.588-0.333-1.006-0.333c-0.345,0-0.738,0.236-1.183,0.703
		c-0.444,0.467-0.92,1.115-1.432,1.94c-0.511,0.826-1.038,1.794-1.578,2.909c-0.543,1.115-1.082,2.319-1.617,3.612
		c-0.537,1.293-1.054,2.645-1.552,4.055c-0.499,1.412-0.958,2.82-1.377,4.23c-0.417,1.411-0.788,2.789-1.107,4.139
		c-0.322,1.35-0.56,2.611-0.721,3.795c-0.049,0.371-0.167,0.674-0.352,0.906c-0.185,0.233-0.406,0.418-0.665,0.555
		c-0.258,0.136-0.535,0.232-0.831,0.285c-0.296,0.056-0.58,0.084-0.851,0.084c-0.319,0-0.63-0.033-0.932-0.103
		c-0.302-0.067-0.57-0.171-0.803-0.313c-0.234-0.142-0.419-0.313-0.555-0.517c-0.136-0.202-0.204-0.436-0.204-0.692
		c0-0.504,0.025-0.971,0.075-1.396c0.048-0.425,0.122-0.854,0.221-1.284c0.344-1.443,0.646-2.781,0.905-4.019
		c0.259-1.236,0.48-2.411,0.665-3.521c0.184-1.106,0.345-2.183,0.48-3.224c0.135-1.04,0.255-2.086,0.359-3.14
		c0.104-1.053,0.2-2.139,0.287-3.26c0.087-1.121,0.18-2.32,0.277-3.602c0-0.111,0-0.252,0-0.426c0-0.172-0.018-0.334-0.054-0.49
		c-0.038-0.154-0.103-0.285-0.194-0.397c-0.092-0.111-0.232-0.166-0.417-0.166c-0.294,0-0.655,0.102-1.08,0.305
		c-0.426,0.202-0.871,0.477-1.34,0.822c-0.467,0.345-0.936,0.747-1.404,1.21c-0.469,0.462-0.899,0.958-1.294,1.487
		c-0.073,0.185-0.19,0.318-0.35,0.397c-0.161,0.081-0.339,0.121-0.537,0.121c-0.061,0-0.125-0.054-0.194-0.158
		c-0.068-0.104-0.129-0.23-0.184-0.379c-0.056-0.148-0.102-0.305-0.14-0.471c-0.036-0.165-0.056-0.316-0.056-0.452
		c0-0.074,0.025-0.135,0.075-0.185c0.444-1.453,0.946-2.669,1.506-3.648s1.151-1.762,1.772-2.346c0.623-0.585,1.258-1,1.904-1.246
		c0.647-0.248,1.265-0.37,1.856-0.37c0.763,0,1.397,0.145,1.903,0.434c0.505,0.29,0.905,0.697,1.2,1.22
		c0.297,0.523,0.503,1.154,0.62,1.894c0.116,0.738,0.176,1.559,0.176,2.457c0,0.69-0.056,1.496-0.167,2.419
		c-0.111,0.925-0.25,1.895-0.417,2.91s-0.348,2.035-0.544,3.057c-0.197,1.022-0.388,1.977-0.573,2.865
		c0.395-1.639,0.859-3.212,1.395-4.721c0.537-1.509,1.121-2.919,1.755-4.23c0.635-1.311,1.31-2.5,2.023-3.565
		c0.714-1.065,1.45-1.979,2.208-2.744c0.756-0.764,1.523-1.355,2.301-1.773c0.776-0.419,1.544-0.629,2.307-0.629
		c0.567,0,1.091,0.124,1.572,0.37c0.481,0.246,0.892,0.629,1.238,1.146c0.344,0.517,0.612,1.169,0.803,1.958
		c0.19,0.788,0.285,1.724,0.285,2.807c0,0.1-0.009,0.254-0.027,0.463s-0.043,0.449-0.074,0.72c-0.03,0.271-0.066,0.563-0.111,0.877
		c-0.042,0.314-0.082,0.626-0.12,0.934c-0.098,0.738-0.203,1.539-0.314,2.401l0.388-0.019c0.48-1.821,1.072-3.46,1.773-4.914
		c0.702-1.453,1.49-2.688,2.365-3.705c0.874-1.016,1.816-1.794,2.826-2.337c1.01-0.542,2.057-0.813,3.142-0.813
		c0.75,0,1.418,0.222,2.004,0.666c0.585,0.444,1.074,1.044,1.469,1.8c0.395,0.758,0.695,1.645,0.905,2.662
		c0.209,1.016,0.314,2.09,0.314,3.223c0,1.06-0.07,2.146-0.212,3.261c-0.142,1.116-0.317,2.217-0.526,3.307
		c-0.211,1.09-0.434,2.16-0.674,3.204c-0.241,1.047-0.466,2.039-0.675,2.978c-0.211,0.935-0.385,1.799-0.526,2.594
		c-0.143,0.795-0.213,1.48-0.213,2.061c0,0.727,0.132,1.252,0.397,1.58c0.266,0.325,0.649,0.489,1.155,0.489
		c0.284,0,0.582-0.077,0.896-0.231c0.315-0.152,0.627-0.355,0.942-0.609c0.314-0.252,0.625-0.541,0.934-0.866
		c0.307-0.328,0.603-0.664,0.885-1.009c0.194-0.233,0.387-0.5,0.578-0.754c0.033-0.145,0.049-0.284,0.087-0.428
		c0.258-0.972,0.616-1.925,1.072-2.854c0.456-0.93,0.993-1.809,1.617-2.633c0.621-0.825,1.301-1.547,2.042-2.161
		c0.735-0.616,1.515-1.106,2.335-1.469c0.816-0.363,1.654-0.545,2.503-0.545c0.283,0,0.506,0.056,0.664,0.167
		c0.161,0.111,0.292,0.237,0.397,0.379c0.104,0.142,0.205,0.28,0.306,0.416c0.1,0.135,0.222,0.234,0.368,0.295
		c0.149,0.061,0.299,0.102,0.455,0.12c0.152,0.02,0.31,0.028,0.472,0.028c0.132,0,0.272-0.003,0.413-0.008
		c0.141-0.008,0.281-0.011,0.417-0.011c0.183,0,0.356,0.019,0.516,0.056c0.161,0.037,0.302,0.117,0.427,0.241
		c0.123,0.123,0.217,0.294,0.285,0.517c0.066,0.222,0.104,0.523,0.104,0.903c0,0.591-0.063,1.247-0.186,1.969
		c-0.125,0.723-0.261,1.458-0.408,2.217c-0.146,0.758-0.281,1.516-0.407,2.273c-0.122,0.758-0.183,1.477-0.183,2.15
		c0,0.58,0.051,1.031,0.156,1.358c0.104,0.325,0.328,0.489,0.676,0.489c0.258,0,0.527-0.064,0.813-0.194
		c0.283-0.128,0.57-0.3,0.857-0.506c0.291-0.211,0.58-0.448,0.867-0.713c0.29-0.263,0.563-0.539,0.823-0.823
		c0.454-0.5,0.909-1.063,1.37-1.658c-0.159-1.295-0.245-2.705-0.245-4.252c0-0.74,0.032-1.526,0.094-2.363
		c0.063-0.84,0.149-1.669,0.259-2.495c-0.367-0.048-0.656-0.095-0.858-0.138c-0.204-0.042-0.417-0.086-0.646-0.129
		c-0.228-0.044-0.517-0.089-0.867-0.139c-0.352-0.05-0.859-0.111-1.526-0.185c-0.294-0.038-0.522-0.108-0.683-0.212
		c-0.158-0.105-0.278-0.228-0.352-0.37c-0.072-0.142-0.117-0.289-0.128-0.443c-0.013-0.155-0.021-0.287-0.021-0.398
		c0-0.246,0.119-0.434,0.36-0.563c0.239-0.129,0.548-0.224,0.923-0.285c0.377-0.063,0.788-0.095,1.238-0.102
		c0.448-0.006,0.881-0.004,1.292,0.009c0.414,0.012,0.784,0.022,1.11,0.027c0.324,0.007,0.551-0.002,0.674-0.027
		c0.334-1.663,0.756-3.273,1.266-4.831s1.084-2.944,1.719-4.158c0.633-1.212,1.326-2.187,2.078-2.918
		c0.75-0.733,1.536-1.099,2.361-1.099c0.532,0,1.014,0.146,1.451,0.443c0.438,0.296,0.811,0.69,1.12,1.182
		c0.307,0.494,0.544,1.069,0.71,1.728c0.167,0.659,0.251,1.345,0.251,2.059c0,0.604-0.087,1.241-0.261,1.913
		c-0.172,0.672-0.406,1.355-0.7,2.051c-0.298,0.697-0.646,1.401-1.046,2.115c-0.4,0.715-0.822,1.423-1.266,2.125
		c0.109,0.013,0.295,0.022,0.555,0.027c0.259,0.007,0.557,0.016,0.896,0.029c0.34,0.012,0.703,0.027,1.1,0.045
		c0.228,0.01,2.412-0.012,4.285-0.06c0.043-0.201,0.094-0.414,0.152-0.66c0.393-1.65,0.589-2.285,1.1-3.844
		c0.51-1.558,1.084-2.944,1.719-4.156c0.634-1.213,1.324-2.186,2.078-2.919c0.75-0.733,1.539-1.099,2.363-1.099
		c0.529,0,1.012,0.147,1.448,0.444c0.438,0.294,0.813,0.688,1.12,1.181c0.309,0.494,0.544,1.069,0.711,1.729
		c0.166,0.659,0.25,1.346,0.25,2.06c0,0.603-0.086,1.241-0.26,1.913c-0.174,0.67-0.407,1.354-0.701,2.049
		c-0.297,0.696-0.646,1.401-1.045,2.116c-0.4,0.713-0.197,0.457-0.678,1.168c0.062-0.092,0,0,0.259,0.005
		c0.258,0.007,0.558,0.016,0.896,0.029c0.338,0.012,0.703,0.027,1.1,0.045c0.396,0.018,0.775,0.034,1.146,0.047
		c0.37,0.012,0.714,0.025,1.034,0.037c0.32,0.012,0.586,0.024,0.794,0.036c0.248,0.013,0.429,0.135,0.536,0.37
		c0.111,0.234,0.167,0.53,0.167,0.887c0,0.433-0.125,0.783-0.369,1.054c-0.248,0.271-0.519,0.406-0.813,0.406H96.55
		c-0.358,0.494-0.718,0.978-1.079,1.452c-0.365,0.475-0.701,0.9-1.009,1.281c-0.05,0.766-0.092,1.516-0.127,2.255
		c-0.017,0.319-0.026,0.647-0.04,0.987c-0.013,0.338-0.023,0.674-0.036,1.008c-0.011,0.334-0.021,0.652-0.026,0.961
		c-0.008,0.308-0.01,0.592-0.01,0.85c0,0.666,0.061,1.227,0.186,1.682c0.121,0.457,0.303,0.828,0.537,1.117
		c0.23,0.289,0.518,0.5,0.854,0.629c0.343,0.129,0.72,0.193,1.14,0.193c0.258,0,0.58-0.063,0.969-0.186
		c0.389-0.121,0.813-0.293,1.275-0.51c0.461-0.214,0.947-0.469,1.459-0.766c0.51-0.295,1.271-0.854,1.771-1.206
		c0.498-0.353,0.834-0.813,1.659-1.733l1.979,0.91C104.994,71.256,102.6,73.661,101.672,74.18z"/>
	<path fill="#D99623" d="M81.758,59.955c-0.355,0.494-0.717,0.977-1.078,1.452c-0.365,0.475-0.699,0.901-1.008,1.28
		c-0.049,0.767-0.094,1.517-0.131,2.256c-0.012,0.32-0.023,0.647-0.035,0.986c-0.014,0.34-0.023,0.674-0.037,1.008
		c-0.013,0.334-0.023,0.653-0.027,0.961c-0.006,0.309-0.008,0.593-0.008,0.851c0,0.666,0.06,1.226,0.185,1.683
		c0.123,0.455,0.302,0.827,0.532,1.116c0.234,0.289,0.521,0.5,0.86,0.628c0.339,0.131,0.716,0.194,1.138,0.194
		c0.259,0,0.58-0.062,0.97-0.185c0.388-0.123,0.813-0.295,1.272-0.511c0.465-0.214,0.951-0.469,1.461-0.766
		c0.51-0.295,1.017-0.617,1.517-0.97c0.497-0.352,1.341-1.213,1.625-1.742c0.498-0.926,0.87-2.057,1.077-2.986
		c-0.008-0.328-0.016-0.65-0.016-0.988c0-0.74-0.063-1.639,0-2.476c0.028-0.403,0.104-1.167,0.164-1.757
		C86.48,60.103,81.758,59.955,81.758,59.955z"/>
	<path fill="#D99623" d="M59.999,0C26.863,0,0,26.865,0,60.001C0,93.139,26.863,120,59.999,120C93.135,120,120,93.139,120,60.001
		C120,26.865,93.135,0,59.999,0z M59.999,113.427c-29.458,0-53.424-23.966-53.424-53.425S30.541,6.574,59.999,6.574
		c29.459,0,53.428,23.968,53.428,53.427S89.458,113.427,59.999,113.427z"/>
	
		<linearGradient id="SVGID_1_" gradientUnits="userSpaceOnUse" x1="290.6904" y1="-239.9609" x2="290.6904" y2="-343.1631" gradientTransform="matrix(1 0 0 -1 -237.6602 -239.96)">
		<stop  offset="0" style="stop-color:#FFFFFF"/>
		<stop  offset="1" style="stop-color:#FFFFFF;stop-opacity:0"/>
	</linearGradient>
	<path opacity="0.2" fill="url(#SVGID_1_)" enable-background="new    " d="M18.385,103.203
		c24.81-31.52,54.399-59.095,87.676-81.642C95.055,8.388,78.508,0.001,59.999,0.001C26.863,0.001,0,26.865,0,60.001
		C0,76.975,7.058,92.289,18.385,103.203z"/>
</g>
</svg>
