<?xml version="1.0" encoding="utf-8"?>
<!-- Generator: Adobe Illustrator 16.0.0, SVG Export Plug-In . SVG Version: 6.00 Build 0)  -->
<!DOCTYPE svg PUBLIC "-//W3C//DTD SVG 1.1//EN" "http://www.w3.org/Graphics/SVG/1.1/DTD/svg11.dtd">
<svg version="1.1" id="Layer_1" xmlns="http://www.w3.org/2000/svg" xmlns:xlink="http://www.w3.org/1999/xlink" x="0px" y="0px"
	 width="68.131px" height="55.368px" viewBox="0 0 68.131 55.368" enable-background="new 0 0 68.131 55.368" xml:space="preserve">
<path fill="#E5E8ED" d="M68.131,6.554c-2.51,1.112-5.202,1.863-8.028,2.202c2.887-1.73,5.101-4.469,6.146-7.734
	c-2.701,1.602-5.692,2.765-8.879,3.393C54.822,1.696,51.189,0,47.17,0c-7.721,0-13.979,6.258-13.979,13.978
	c0,1.095,0.125,2.161,0.363,3.184c-11.615-0.581-21.919-6.146-28.81-14.604C3.54,4.623,2.85,7.024,2.85,9.586
	c0,4.848,2.467,9.127,6.218,11.634c-2.289-0.075-4.447-0.702-6.332-1.747c-0.001,0.056-0.001,0.114-0.001,0.173
	c0,6.774,4.82,12.423,11.213,13.705c-1.172,0.321-2.406,0.492-3.683,0.492c-0.9,0-1.774-0.087-2.63-0.253
	c1.779,5.556,6.943,9.596,13.058,9.707c-4.784,3.752-10.81,5.985-17.359,5.985c-1.129,0-2.24-0.065-3.334-0.199
	c6.186,3.969,13.531,6.284,21.427,6.284c25.71,0,39.771-21.299,39.771-39.771c0-0.604-0.013-1.208-0.041-1.809
	C63.887,11.819,66.257,9.357,68.131,6.554z"/>
</svg>
